<mxfile host="app.diagrams.net" agent="Mozilla/5.0 (Windows NT 10.0; Win64; x64) AppleWebKit/537.36 (KHTML, like Gecko) Chrome/134.0.0.0 Safari/537.36" version="26.1.1">
  <diagram name="Página-1" id="ALvcP9yG7THtVyxaHrCx">
    <mxGraphModel dx="1500" dy="796" grid="1" gridSize="10" guides="1" tooltips="1" connect="1" arrows="1" fold="1" page="1" pageScale="1" pageWidth="827" pageHeight="1169" math="0" shadow="0">
      <root>
        <mxCell id="0" />
        <mxCell id="1" parent="0" />
        <mxCell id="EtU9XFmCBPEUrjXKIV4a-11" value="" style="edgeStyle=orthogonalEdgeStyle;rounded=0;orthogonalLoop=1;jettySize=auto;html=1;" edge="1" parent="1" source="EtU9XFmCBPEUrjXKIV4a-2" target="EtU9XFmCBPEUrjXKIV4a-3">
          <mxGeometry relative="1" as="geometry" />
        </mxCell>
        <mxCell id="EtU9XFmCBPEUrjXKIV4a-2" value="Inicio" style="ellipse;whiteSpace=wrap;html=1;" vertex="1" parent="1">
          <mxGeometry x="354" y="20" width="120" height="80" as="geometry" />
        </mxCell>
        <mxCell id="EtU9XFmCBPEUrjXKIV4a-21" value="" style="edgeStyle=orthogonalEdgeStyle;rounded=0;orthogonalLoop=1;jettySize=auto;html=1;" edge="1" parent="1" source="EtU9XFmCBPEUrjXKIV4a-3" target="EtU9XFmCBPEUrjXKIV4a-20">
          <mxGeometry relative="1" as="geometry" />
        </mxCell>
        <mxCell id="EtU9XFmCBPEUrjXKIV4a-3" value="Definir&amp;nbsp;&lt;div&gt;num1&lt;/div&gt;&lt;div&gt;num2&lt;/div&gt;&lt;div&gt;suma&amp;nbsp;&lt;/div&gt;&lt;div&gt;como entero&lt;/div&gt;" style="rounded=0;whiteSpace=wrap;html=1;" vertex="1" parent="1">
          <mxGeometry x="339" y="120" width="150" height="90" as="geometry" />
        </mxCell>
        <mxCell id="EtU9XFmCBPEUrjXKIV4a-23" value="" style="edgeStyle=orthogonalEdgeStyle;rounded=0;orthogonalLoop=1;jettySize=auto;html=1;" edge="1" parent="1" source="EtU9XFmCBPEUrjXKIV4a-6" target="EtU9XFmCBPEUrjXKIV4a-19">
          <mxGeometry relative="1" as="geometry" />
        </mxCell>
        <mxCell id="EtU9XFmCBPEUrjXKIV4a-6" value="Leer num1" style="shape=parallelogram;perimeter=parallelogramPerimeter;whiteSpace=wrap;html=1;fixedSize=1;" vertex="1" parent="1">
          <mxGeometry x="354" y="340" width="120" height="60" as="geometry" />
        </mxCell>
        <mxCell id="EtU9XFmCBPEUrjXKIV4a-17" value="" style="edgeStyle=orthogonalEdgeStyle;rounded=0;orthogonalLoop=1;jettySize=auto;html=1;" edge="1" parent="1" source="EtU9XFmCBPEUrjXKIV4a-8" target="EtU9XFmCBPEUrjXKIV4a-9">
          <mxGeometry relative="1" as="geometry" />
        </mxCell>
        <mxCell id="EtU9XFmCBPEUrjXKIV4a-8" value="Leer num2" style="shape=parallelogram;perimeter=parallelogramPerimeter;whiteSpace=wrap;html=1;fixedSize=1;" vertex="1" parent="1">
          <mxGeometry x="354" y="530" width="120" height="60" as="geometry" />
        </mxCell>
        <mxCell id="EtU9XFmCBPEUrjXKIV4a-18" value="" style="edgeStyle=orthogonalEdgeStyle;rounded=0;orthogonalLoop=1;jettySize=auto;html=1;" edge="1" parent="1" source="EtU9XFmCBPEUrjXKIV4a-9" target="EtU9XFmCBPEUrjXKIV4a-10">
          <mxGeometry relative="1" as="geometry" />
        </mxCell>
        <mxCell id="EtU9XFmCBPEUrjXKIV4a-9" value="suma = num1 + num2" style="rounded=0;whiteSpace=wrap;html=1;" vertex="1" parent="1">
          <mxGeometry x="353" y="640" width="120" height="60" as="geometry" />
        </mxCell>
        <mxCell id="EtU9XFmCBPEUrjXKIV4a-10" value="El resultado de la suma es: suma" style="shape=document;whiteSpace=wrap;html=1;boundedLbl=1;" vertex="1" parent="1">
          <mxGeometry x="353" y="730" width="120" height="80" as="geometry" />
        </mxCell>
        <mxCell id="EtU9XFmCBPEUrjXKIV4a-24" value="" style="edgeStyle=orthogonalEdgeStyle;rounded=0;orthogonalLoop=1;jettySize=auto;html=1;" edge="1" parent="1" source="EtU9XFmCBPEUrjXKIV4a-19" target="EtU9XFmCBPEUrjXKIV4a-8">
          <mxGeometry relative="1" as="geometry" />
        </mxCell>
        <mxCell id="EtU9XFmCBPEUrjXKIV4a-19" value="&quot;Introduzca el segundo número (entero)&quot;" style="shape=parallelogram;perimeter=parallelogramPerimeter;whiteSpace=wrap;html=1;fixedSize=1;" vertex="1" parent="1">
          <mxGeometry x="335" y="440" width="156" height="70" as="geometry" />
        </mxCell>
        <mxCell id="EtU9XFmCBPEUrjXKIV4a-22" value="" style="edgeStyle=orthogonalEdgeStyle;rounded=0;orthogonalLoop=1;jettySize=auto;html=1;" edge="1" parent="1" source="EtU9XFmCBPEUrjXKIV4a-20" target="EtU9XFmCBPEUrjXKIV4a-6">
          <mxGeometry relative="1" as="geometry" />
        </mxCell>
        <mxCell id="EtU9XFmCBPEUrjXKIV4a-20" value="&quot;Introduzca el primer&amp;nbsp;&lt;div&gt;número (entero)&quot;&lt;/div&gt;" style="shape=parallelogram;perimeter=parallelogramPerimeter;whiteSpace=wrap;html=1;fixedSize=1;" vertex="1" parent="1">
          <mxGeometry x="336" y="240" width="156" height="70" as="geometry" />
        </mxCell>
      </root>
    </mxGraphModel>
  </diagram>
</mxfile>
